<?xml version="1.0" encoding="UTF-8"?>
<svg width="197px" height="23px" viewBox="0 0 197 23" version="1.1" xmlns="http://www.w3.org/2000/svg" xmlns:xlink="http://www.w3.org/1999/xlink">
    <title>Group 13</title>
    <g id="Sign-up" stroke="none" stroke-width="1" fill="none" fill-rule="evenodd">
        <g id="[PC]-Seller-Sign-up-step-02" transform="translate(-1193.000000, -1573.000000)" fill-rule="nonzero">
            <g id="Group-8" transform="translate(751.000000, 1469.000000)">
                <g id="Group-9" transform="translate(318.000000, 60.000000)">
                    <g id="Group-13" transform="translate(124.000000, 44.000000)">
                        <path d="M94.4303618,5.13333333 C92.9265157,5.13333333 91.4669003,5.82352941 90.759208,6.77254902 L90.6707464,6.77254902 C89.9630541,5.7372549 88.5476695,5.13333333 87.1765157,5.13333333 C84.1245926,5.13333333 82.3553618,7.0745098 82.3553618,9.6627451 L82.3553618,16.9960784 C82.3553618,17.0823529 82.3995926,17.1686275 82.4880541,17.1686275 L84.7880541,17.1686275 C84.8765157,17.1686275 84.9207464,17.0823529 84.9207464,16.9960784 L84.9207464,9.6627451 C84.9207464,8.41176471 85.7611311,7.33333333 87.1765157,7.33333333 C88.6803618,7.33333333 89.3880541,8.45490196 89.3880541,9.6627451 L89.3880541,16.9960784 C89.3880541,17.0823529 89.4322849,17.1686275 89.5207464,17.1686275 L91.8207464,17.1686275 C91.909208,17.1686275 91.9534388,17.0823529 91.9534388,16.9960784 L91.9534388,9.6627451 C91.9534388,8.45490196 92.9265157,7.33333333 94.1649772,7.33333333 C95.6688234,7.33333333 96.3765157,8.45490196 96.3765157,9.6627451 L96.3765157,16.9960784 C96.3765157,17.0823529 96.4207464,17.1686275 96.509208,17.1686275 L98.809208,17.1686275 C98.8976695,17.1686275 98.9419003,17.0823529 98.9419003,16.9960784 L98.9419003,9.6627451 C99.0745926,7.03137255 97.5707464,5.13333333 94.4303618,5.13333333 Z" id="Path" fill="#935227"></path>
                        <path d="M164.182285,-5.15143483e-14 L161.838054,-5.15143483e-14 C161.749593,-5.15143483e-14 161.661131,0.0862745098 161.661131,0.129411765 L161.661131,16.9529412 C161.661131,17.0392157 161.749593,17.1254902 161.838054,17.1254902 L164.182285,17.1254902 C164.270746,17.1254902 164.314977,17.0392157 164.314977,16.9529412 L164.314977,0.129411765 C164.359208,0.0862745098 164.270746,-5.15143483e-14 164.182285,-5.15143483e-14 Z" id="Path" fill="#935227"></path>
                        <path d="M117.120746,5.13333333 C115.705362,5.13333333 114.4669,5.90980392 113.803439,6.94509804 L113.714977,6.94509804 L113.714977,5.52156863 C113.714977,5.43529412 113.626516,5.34901961 113.582285,5.34901961 L111.503439,5.34901961 C111.414977,5.34901961 111.326516,5.43529412 111.326516,5.52156863 L111.326516,16.9960784 C111.326516,17.0823529 111.414977,17.1686275 111.503439,17.1686275 L113.803439,17.1686275 C113.8919,17.1686275 113.936131,17.0823529 113.936131,16.9960784 L113.936131,10.654902 C113.936131,8.97254902 114.599593,7.72156863 116.545746,7.72156863 C116.72267,7.72156863 117.607285,7.89411765 117.607285,7.89411765 C117.695746,7.89411765 117.784208,7.85098039 117.784208,7.76470588 C117.784208,7.76470588 118.138054,6.25490196 118.226516,5.78039216 C118.226516,5.69411765 118.270746,5.65098039 118.270746,5.56470588 C118.314977,5.21960784 117.784208,5.13333333 117.120746,5.13333333 Z" id="Path" fill="#935227"></path>
                        <path d="M186.253439,14.8392157 L184.351516,13.8901961 C184.351516,13.8901961 184.218823,13.8039216 184.130362,13.9764706 C184.0419,14.1490196 183.555362,15.227451 181.918823,15.227451 C180.282285,15.227451 179.4419,14.0627451 179.4419,12.9843137 L179.4419,9.49019608 C179.4419,9.49019608 179.4419,7.24705882 181.918823,7.24705882 C183.4669,7.24705882 183.953439,8.19607843 184.130362,8.54117647 C184.130362,8.58431373 184.174593,8.71372549 184.439977,8.58431373 L186.209208,7.67843137 C186.209208,7.67843137 186.3419,7.59215686 186.253439,7.4627451 C186.164977,7.33333333 185.236131,5.04705882 181.609208,5.17647059 C178.026516,5.2627451 176.964977,7.9372549 176.964977,9.2745098 L176.964977,12.9843137 C176.964977,12.9843137 176.743823,17.2117647 181.653439,17.4705882 C181.653439,17.4705882 185.103439,17.7294118 186.29767,15.1411765 C186.29767,15.0117647 186.386131,14.8823529 186.253439,14.8392157 Z" id="Path" fill="#935227"></path>
                        <path d="M155.82267,5.13333333 C154.274593,5.13333333 153.301516,5.69411765 152.638054,6.34117647 C152.638054,5.78039216 152.638054,5.47843137 152.638054,5.47843137 C152.638054,5.47843137 152.638054,5.34901961 152.505362,5.34901961 L150.514977,5.34901961 C150.514977,5.34901961 150.382285,5.34901961 150.382285,5.47843137 C150.382285,5.65098039 150.382285,21.8705882 150.382285,21.8705882 C150.382285,21.8705882 150.382285,22 150.514977,22 C150.64767,22 152.682285,22 152.682285,22 C152.682285,22 152.814977,22 152.814977,21.8705882 C152.814977,21.827451 152.859208,19.3686275 152.814977,16.2627451 C153.478439,16.8666667 154.539977,17.3411765 155.8669,17.3411765 C158.476516,17.3411765 160.201516,15.4862745 160.201516,12.854902 L160.201516,9.53333333 C160.157285,7.20392157 158.7419,5.13333333 155.82267,5.13333333 Z M157.680362,13.027451 C157.680362,13.9333333 157.0169,15.2705882 155.203439,15.2705882 C153.434208,15.2705882 152.726516,13.9333333 152.726516,13.027451 L152.726516,9.49019608 C152.726516,8.88627451 153.168823,7.24705882 155.203439,7.24705882 C157.238054,7.24705882 157.680362,8.88627451 157.680362,9.49019608 L157.680362,13.027451 Z" id="Shape" fill="#935227"></path>
                        <path d="M135.343823,5.13333333 C131.893823,5.13333333 130.478439,7.50588235 130.478439,9.6627451 L130.478439,12.7254902 C130.478439,15.4 132.159208,17.3843137 135.388054,17.3843137 C136.051516,17.3843137 136.759208,17.2980392 137.289977,17.1254902 C138.0419,16.9098039 138.6169,16.5215686 139.103439,16.0470588 C139.368823,15.745098 139.634208,15.4431373 139.7669,15.054902 C139.811131,14.9686275 139.7669,14.8823529 139.678439,14.8392157 L137.776516,13.8901961 C137.688054,13.8470588 137.599593,13.8901961 137.555362,13.9764706 C137.289977,14.7098039 136.538054,15.2705882 135.388054,15.2705882 C133.707285,15.2705882 132.911131,14.0627451 132.911131,12.9843137 L132.911131,11.7764706 L139.72267,11.7764706 C140.032285,11.7764706 140.29767,11.5176471 140.29767,11.172549 L140.29767,10.0509804 C140.386131,7.16078431 138.793823,5.13333333 135.343823,5.13333333 Z M137.864977,9.92156863 L132.999593,9.92156863 L132.999593,9.53333333 C132.999593,8.19607843 133.97267,7.20392157 135.432285,7.20392157 C137.157285,7.20392157 137.864977,8.28235294 137.864977,9.57647059 L137.864977,9.92156863 Z" id="Shape" fill="#935227"></path>
                        <path d="M191.826516,5.13333333 C188.376516,5.13333333 186.961131,7.50588235 186.961131,9.6627451 L186.961131,12.7254902 C186.961131,15.4 188.6419,17.3843137 191.870746,17.3843137 C192.534208,17.3843137 193.2419,17.2980392 193.77267,17.1254902 C194.524593,16.9098039 195.099593,16.5215686 195.586131,16.0470588 C195.851516,15.745098 196.1169,15.4431373 196.249593,15.054902 C196.293823,14.9686275 196.249593,14.8823529 196.161131,14.8392157 L194.259208,13.8901961 C194.170746,13.8470588 194.082285,13.8901961 194.038054,13.9764706 C193.77267,14.7098039 193.020746,15.2705882 191.870746,15.2705882 C190.189977,15.2705882 189.393823,14.0627451 189.393823,12.9843137 L189.393823,11.7764706 L196.205362,11.7764706 C196.514977,11.7764706 196.780362,11.5176471 196.780362,11.172549 L196.780362,10.0509804 C196.868823,7.16078431 195.276516,5.13333333 191.826516,5.13333333 Z M194.303439,9.92156863 L189.438054,9.92156863 L189.438054,9.53333333 C189.438054,8.19607843 190.411131,7.20392157 191.870746,7.20392157 C193.595746,7.20392157 194.303439,8.28235294 194.303439,9.57647059 L194.303439,9.92156863 Z" id="Shape" fill="#935227"></path>
                        <path d="M148.34767,14.8823529 C148.34767,14.8823529 148.34767,14.8823529 148.34767,14.8823529 C147.905362,14.9686275 147.507285,15.0117647 147.064977,15.054902 C146.888054,15.054902 146.711131,15.0980392 146.534208,15.0980392 C145.914977,15.0980392 145.5169,14.8823529 145.339977,14.4078431 C145.251516,14.1490196 145.207285,13.8039216 145.207285,13.3294118 L145.207285,7.41960784 L146.534208,7.41960784 L148.082285,7.41960784 C148.214977,7.41960784 148.303439,7.33333333 148.303439,7.20392157 L148.303439,5.52156863 C148.303439,5.39215686 148.214977,5.30588235 148.082285,5.30588235 L145.207285,5.30588235 L145.207285,2.15686275 C145.207285,2.02745098 145.118823,1.94117647 144.986131,1.94117647 C144.986131,1.94117647 144.9419,1.94117647 144.9419,1.94117647 L142.818823,2.41568627 C142.730362,2.41568627 142.6419,2.50196078 142.6419,2.63137255 L142.6419,5.34901961 L141.093823,5.34901961 C140.961131,5.34901961 140.87267,5.43529412 140.87267,5.56470588 L140.87267,7.24705882 C140.87267,7.37647059 140.961131,7.4627451 141.093823,7.4627451 L142.6419,7.4627451 L142.6419,14.3215686 C142.6419,14.9254902 142.774593,15.4862745 143.039977,16.0039216 C143.305362,16.4784314 143.74767,16.8666667 144.278439,17.1254902 C144.853439,17.3843137 145.5169,17.427451 146.136131,17.427451 C146.755362,17.427451 147.418823,17.3843137 148.038054,17.254902 C148.303439,17.2117647 148.568823,17.1254902 148.789977,17.0392157 C148.878439,16.9960784 148.92267,16.9098039 148.92267,16.8235294 L148.613054,15.0980392 C148.568823,14.9254902 148.436131,14.8392157 148.34767,14.8823529 Z" id="Path" fill="#935227"></path>
                        <path d="M125.524593,9.83529412 L129.195746,5.82352941 C129.37267,5.60784314 129.239977,5.30588235 128.974593,5.30588235 L126.630362,5.30588235 C126.453439,5.30588235 126.320746,5.39215686 126.188054,5.47843137 L122.074593,9.96470588 L122.074593,0.17254902 C122.074593,0.0862745098 121.986131,0.0431372549 121.89767,0.0431372549 L119.59767,0.0431372549 C119.509208,0.0431372549 119.464977,0.129411765 119.464977,0.17254902 L119.464977,16.9529412 C119.464977,17.0392157 119.553439,17.1254902 119.59767,17.1254902 L121.89767,17.1254902 C121.986131,17.1254902 122.074593,17.0392157 122.074593,16.9529412 L122.074593,13.8901961 C122.074593,12.7254902 123.180362,11.7764706 124.286131,11.7764706 L124.595746,11.7764706 C126.143823,11.7764706 126.674593,12.7254902 126.807285,13.9333333 C126.895746,14.6235294 126.984208,16.4352941 126.984208,16.9529412 C126.984208,17.0392157 127.07267,17.0823529 127.1169,17.0823529 L129.461131,17.0823529 C129.549593,17.0823529 129.638054,16.9960784 129.638054,16.9098039 C129.638054,16.3490196 129.549593,14.3647059 129.461131,13.545098 C129.107285,11.2588235 128.178439,9.87843137 125.524593,9.83529412 Z" id="Path" fill="#935227"></path>
                        <path d="M104.824593,5.09019608 C104.824593,5.09019608 103.320746,5.04705882 101.153439,5.82352941 L100.843823,5.95294118 C100.755362,5.99607843 100.711131,6.08235294 100.755362,6.1254902 L101.374593,7.85098039 C101.374593,7.85098039 101.418823,8.02352941 101.639977,7.9372549 C101.861131,7.85098039 103.232285,7.20392157 104.824593,7.20392157 C106.814977,7.20392157 107.213054,8.41176471 107.213054,9.83529412 C107.213054,9.83529412 106.063054,8.92941176 104.426516,8.92941176 C102.126516,8.92941176 100.003439,10.3960784 100.003439,13.1568627 C100.003439,14.8823529 101.020746,17.3843137 104.470746,17.3843137 C104.470746,17.3843137 106.063054,17.4705882 107.345746,16.4352941 L107.345746,16.9960784 C107.345746,17.0823529 107.434208,17.1686275 107.478439,17.1686275 L109.380362,17.1686275 C109.468823,17.1686275 109.513054,17.0823529 109.513054,16.9960784 C109.513054,16.9960784 109.513054,16.4784314 109.513054,16.0470588 C109.513054,14.1921569 109.513054,9.49019608 109.513054,9.49019608 C109.513054,9.49019608 109.468823,5.09019608 104.824593,5.09019608 Z M104.736131,15.3568627 C103.5419,15.3568627 102.436131,14.5372549 102.436131,13.1568627 C102.436131,12.1647059 103.099593,10.9568627 104.736131,10.9568627 C106.726516,10.9568627 107.213054,12.3803922 107.213054,13.0705882 C107.213054,14.1058824 106.593823,15.3568627 104.736131,15.3568627 Z" id="Shape" fill="#935227"></path>
                        <path d="M170.993823,5.09019608 C170.993823,5.09019608 169.489977,5.04705882 167.32267,5.82352941 L167.013054,5.95294118 C166.924593,5.99607843 166.880362,6.08235294 166.924593,6.1254902 L167.543823,7.85098039 C167.543823,7.85098039 167.588054,8.02352941 167.809208,7.9372549 C168.030362,7.85098039 169.401516,7.20392157 170.993823,7.20392157 C172.984208,7.20392157 173.382285,8.41176471 173.382285,9.83529412 C173.382285,9.83529412 172.232285,8.92941176 170.595746,8.92941176 C168.295746,8.92941176 166.17267,10.3960784 166.17267,13.1568627 C166.17267,14.8823529 167.189977,17.3843137 170.639977,17.3843137 C170.639977,17.3843137 172.232285,17.4705882 173.514977,16.4352941 L173.514977,16.9960784 C173.514977,17.0823529 173.603439,17.1686275 173.64767,17.1686275 L175.549593,17.1686275 C175.638054,17.1686275 175.682285,17.0823529 175.682285,16.9960784 C175.682285,16.9960784 175.682285,16.4784314 175.682285,16.0470588 C175.682285,14.1921569 175.682285,9.49019608 175.682285,9.49019608 C175.682285,9.49019608 175.638054,5.09019608 170.993823,5.09019608 Z M170.905362,15.3568627 C169.711131,15.3568627 168.605362,14.5372549 168.605362,13.1568627 C168.605362,12.1647059 169.268823,10.9568627 170.905362,10.9568627 C172.895746,10.9568627 173.382285,12.3803922 173.382285,13.0705882 C173.382285,14.1058824 172.763054,15.3568627 170.905362,15.3568627 Z" id="Shape" fill="#935227"></path>
                        <path d="M7.50207747,8.90731707 L9.27735837,7.98536585 C9.27735837,7.98536585 9.41050444,7.89756098 9.3217404,7.76585366 C9.23297635,7.5902439 8.30095388,5.30731707 4.66162804,5.43902439 C1.06668422,5.48292683 0.00151567592,8.20487805 0.00151567592,9.56585366 L0.00151567592,13.3414634 C0.00151567592,13.3414634 -0.220394436,17.6439024 4.70601006,17.9073171 C4.70601006,17.9073171 8.16780781,18.1707317 9.36612242,15.5365854 C9.36612242,15.5365854 9.45488646,15.404878 9.27735837,15.3170732 L7.36893141,14.3512195 C7.36893141,14.3512195 7.23578534,14.2634146 7.14702129,14.4390244 C7.05825725,14.6146341 6.570055,15.7121951 4.92792017,15.7121951 C3.28578534,15.7121951 2.44252691,14.5268293 2.44252691,13.4292683 L2.44252691,9.82926829 C2.44252691,9.82926829 2.44252691,7.54634146 4.92792017,7.54634146 C6.48129096,7.54634146 6.9694932,8.51219512 7.14702129,8.86341463 C7.19140332,8.86341463 7.23578534,9.03902439 7.50207747,8.90731707 Z" id="Path" fill="#935227"></path>
                        <path d="M15.0914033,5.39512195 L15.0914033,5.39512195 C10.2093808,5.39512195 10.1206168,9.69756098 10.1206168,9.91707317 C10.1206168,9.91707317 10.1206168,9.91707317 10.1206168,9.91707317 L10.1206168,13.297561 C10.1206168,13.297561 10.0318528,17.8195122 15.0470213,17.8195122 L15.0470213,17.8195122 C19.9290438,17.8195122 19.9734258,13.5170732 19.9734258,13.297561 C19.9734258,13.297561 19.9734258,13.297561 19.9734258,13.297561 L19.9734258,9.91707317 C20.0178078,9.91707317 20.0621898,5.39512195 15.0914033,5.39512195 Z M17.5324146,13.4292683 C17.5324146,14.3512195 16.8666842,15.7121951 15.0470213,15.7121951 C13.2717404,15.7121951 12.561628,14.3512195 12.561628,13.4292683 L12.561628,9.82926829 C12.561628,9.21463415 13.0054483,7.54634146 15.0470213,7.54634146 C16.0678078,7.54634146 16.6891561,7.98536585 17.0442123,8.46829268 C17.3992685,8.95121951 17.5324146,9.52195122 17.5324146,9.87317073 L17.5324146,13.4292683 Z" id="Shape" fill="#935227"></path>
                        <path d="M49.4874707,5.35121951 C49.4874707,5.35121951 47.978482,5.30731707 45.8037629,6.09756098 L45.4930887,6.22926829 C45.4043247,6.27317073 45.3599426,6.36097561 45.4043247,6.40487805 L46.025673,8.16097561 C46.025673,8.16097561 46.070055,8.33658537 46.2919651,8.24878049 C46.5138752,8.16097561 47.8897179,7.50243902 49.4874707,7.50243902 C51.4846617,7.50243902 51.8840999,8.73170732 51.8840999,10.2243902 C51.8840999,10.2243902 50.7301674,9.30243902 49.0880325,9.30243902 C46.7801674,9.30243902 44.6498303,10.795122 44.6498303,13.604878 C44.6498303,15.3609756 45.6706168,17.9073171 49.1324146,17.9073171 C49.1324146,17.9073171 50.7301674,17.995122 52.017246,16.9414634 L52.017246,17.5121951 C52.017246,17.5121951 52.017246,17.6439024 52.1503921,17.6439024 C52.2835381,17.6439024 54.058819,17.6439024 54.058819,17.6439024 C54.058819,17.6439024 54.1919651,17.6439024 54.1919651,17.5121951 C54.1919651,17.3804878 54.1919651,9.87317073 54.1919651,9.87317073 C54.1919651,9.87317073 54.1475831,5.35121951 49.4874707,5.35121951 Z M49.3987067,15.8 C48.2003921,15.8 47.0908415,14.9658537 47.0908415,13.5609756 C47.0908415,12.5512195 47.7565719,11.3219512 49.3987067,11.3219512 C51.3958977,11.3219512 51.8840999,12.7707317 51.8840999,13.4731707 C51.8840999,14.5268293 51.2627516,15.8 49.3987067,15.8 Z" id="Shape" fill="#FFC400"></path>
                        <path d="M65.9975831,9.91707317 L65.9975831,17.4682927 C65.9975831,17.5560976 65.908819,17.6439024 65.820055,17.6439024 L63.6453359,17.6439024 C63.5565719,17.6439024 63.4678078,17.5560976 63.4678078,17.4682927 L63.4678078,9.82926829 C63.4678078,8.90731707 62.8020775,7.54634146 60.9824146,7.54634146 C59.1627516,7.54634146 58.4970213,8.90731707 58.4970213,9.82926829 L58.4970213,17.4682927 C58.4970213,17.5560976 58.4082572,17.6439024 58.3638752,17.6439024 L56.1891561,17.6439024 C56.1003921,17.6439024 56.011628,17.5560976 56.011628,17.4682927 L56.011628,5.7902439 C56.011628,5.70243902 56.1003921,5.61463415 56.1891561,5.61463415 L58.1863471,5.61463415 C58.2751112,5.61463415 58.3194932,5.70243902 58.3194932,5.7902439 L58.3194932,6.62439024 C59.5621898,5.26341463 61.6481449,5.39512195 61.6481449,5.39512195 C64.1779202,5.39512195 65.9975831,7.19512195 65.9975831,9.91707317 Z" id="Path" fill="#88CC2F"></path>
                        <path d="M78.6908415,5.43902439 C78.6908415,5.43902439 78.4245494,5.43902439 78.4245494,5.43902439 C77.9363471,5.43902439 76.8711786,5.61463415 76.0723022,6.49268293 C76.0723022,6.49268293 74.9183696,5.35121951 72.5217404,5.35121951 C69.770055,5.35121951 67.5953359,6.97560976 67.5953359,9.69756098 C67.5953359,10.6195122 67.9060101,12.2878049 69.4593808,13.3414634 C69.4593808,13.3414634 67.6840999,14.1756098 67.6840999,16.4146341 L67.6840999,17.4243902 C67.6840999,17.5121951 67.772864,17.6 67.861628,17.6 L75.0071337,17.6 C75.8947741,17.6 76.4717404,18.302439 76.4717404,19.004878 C76.4717404,19.004878 76.6048865,20.0585366 75.1402797,20.8926829 C75.1402797,20.8926829 75.0071337,20.9804878 75.0958977,21.1121951 C75.1846617,21.2439024 76.0723022,22.8243902 76.0723022,22.8243902 C76.0723022,22.8243902 76.1610662,22.9560976 76.2942123,22.8682927 C76.2942123,22.8682927 78.6908415,21.8146341 78.6908415,19.004878 C78.6908415,17.6878049 77.8032011,15.5365854 75.0515157,15.5365854 L70.1251112,15.5365854 C70.1251112,15.5365854 70.3026393,14.0878049 72.1223022,14.0878049 L72.7436505,14.0878049 C75.5840999,14.0878049 77.5369089,12.2 77.5369089,9.87317073 C77.5369089,9.87317073 77.581291,8.73170732 77.1374707,7.8097561 C77.1374707,7.8097561 77.8032011,7.32682927 78.7352235,7.41463415 C78.7352235,7.41463415 78.9127516,7.41463415 78.9127516,7.23902439 L78.9127516,5.48292683 C78.8683696,5.52682927 78.7796056,5.43902439 78.6908415,5.43902439 Z M72.4773584,12.0243902 C71.2346617,12.0243902 70.1251112,11.1902439 70.1251112,9.78536585 C70.1251112,8.77560976 70.8352235,7.54634146 72.4773584,7.54634146 C74.5189314,7.54634146 75.0071337,8.99512195 75.0071337,9.69756098 C75.0515157,10.7512195 74.4301674,12.0243902 72.4773584,12.0243902 Z" id="Shape" fill="#31B4DD"></path>
                        <path d="M31.3796056,5.61463415 L29.2048865,5.61463415 C29.1161224,5.61463415 29.0273584,5.70243902 29.0273584,5.7902439 L29.0273584,13.4292683 C29.0273584,14.3512195 28.361628,15.7121951 26.5419651,15.7121951 C24.7666842,15.7121951 24.0565719,14.3512195 24.0565719,13.4292683 L24.0565719,5.7902439 C24.0565719,5.70243902 23.9678078,5.61463415 23.9234258,5.61463415 L21.7487067,5.61463415 C21.6599426,5.61463415 21.6155606,5.70243902 21.6155606,5.7902439 L21.6155606,13.3414634 C21.6155606,16.0634146 23.4352235,17.8634146 25.8762348,17.8634146 C25.8762348,17.8634146 27.9621898,17.995122 29.2048865,16.6341463 L29.2048865,17.4682927 C29.2048865,17.5560976 29.2936505,17.6439024 29.3824146,17.6439024 L31.3796056,17.6439024 C31.4683696,17.6439024 31.5127516,17.5560976 31.5127516,17.4682927 L31.5127516,5.7902439 C31.5571337,5.70243902 31.4683696,5.61463415 31.3796056,5.61463415 Z" id="Path" fill="#935227"></path>
                        <path d="M38.9689314,5.39512195 C37.4155606,5.39512195 36.4391561,5.96585366 35.7734258,6.62439024 L35.7734258,5.74634146 C35.7734258,5.65853659 35.6846617,5.57073171 35.6402797,5.57073171 L33.6430887,5.57073171 C33.5543247,5.57073171 33.5099426,5.65853659 33.5099426,5.74634146 L33.5099426,22.4731707 C33.5099426,22.5609756 33.5987067,22.604878 33.6430887,22.604878 L35.8178078,22.604878 C35.9065719,22.604878 35.9509539,22.5609756 35.9509539,22.4731707 C35.9509539,22.4731707 35.9953359,19.5317073 35.9509539,16.7658537 C36.6166842,17.3804878 37.6818528,17.8634146 39.0133134,17.8634146 C40.3447741,17.8634146 41.4099426,17.3804878 42.164437,16.5902439 C42.9189314,15.8 43.3627516,14.6585366 43.3627516,13.3414634 L43.3627516,9.96097561 C43.3183696,7.50243902 41.8537629,5.39512195 38.9689314,5.39512195 Z M40.8329764,13.3853659 C40.8329764,14.3073171 40.167246,15.6682927 38.3475831,15.6682927 C36.5723022,15.6682927 35.8621898,14.3073171 35.8621898,13.3853659 L35.8621898,9.82926829 C35.8621898,9.21463415 36.3060101,7.54634146 38.3475831,7.54634146 C39.3683696,7.54634146 39.9897179,7.94146341 40.3447741,8.46829268 C40.6998303,8.95121951 40.8329764,9.52195122 40.8329764,9.87317073 L40.8329764,13.3853659 Z" id="Shape" fill="#F7552F"></path>
                    </g>
                </g>
            </g>
        </g>
    </g>
</svg>