<svg width="16" height="16" viewBox="0 0 16 16" fill="none" xmlns="http://www.w3.org/2000/svg">
<path d="M5.48372 6.99963C5.41579 6.8656 5.43696 6.70367 5.53819 6.5926L6.52119 5.3531C6.95866 4.8731 7.02922 4.16287 6.69482 3.60617L5.01472 1.04653C4.63852 0.420265 3.85942 0.165365 3.18579 0.448132L1.24746 1.26183C0.74469 1.4729 0.398057 1.9446 0.352157 2.4879C0.24529 3.75267 0.515924 6.28723 3.16086 9.98257C3.94969 11.0847 4.91529 12.0503 6.01739 12.8391C9.71272 15.484 12.2473 15.7546 13.5121 15.6478C14.0554 15.6019 14.5271 15.2553 14.7381 14.7525L15.5518 12.8142C15.8346 12.1405 15.5797 11.3614 14.9534 10.9852L12.3938 9.30513C11.8371 8.97073 11.1269 9.0413 10.6469 9.47877L9.40732 10.4618C9.29626 10.563 9.13436 10.5842 9.00032 10.5162C7.38739 9.6707 6.37052 8.72117 5.48372 6.99963Z" fill="#E12705"/>
</svg>
