<svg width="12" height="12" viewBox="0 0 12 12" fill="none" xmlns="http://www.w3.org/2000/svg">
<path fill-rule="evenodd" clip-rule="evenodd" d="M6 0C7.60265 0 9.1094 0.6241 10.2427 1.75735C11.3759 2.8906 12 4.39735 12 6C12 7.60265 11.3759 9.1094 10.2427 10.2427C9.1094 11.3759 7.60265 12 6 12C4.39733 12 2.8906 11.3759 1.75738 10.2427C0.6241 9.1094 0 7.60265 0 6C0 4.39735 0.6241 2.8906 1.75738 1.75735C2.8906 0.6241 4.39733 0 6 0ZM6.0125 2.5C6.26892 2.5 6.48025 2.69302 6.50913 2.94169L6.5125 3V7C6.5125 7.27614 6.28864 7.5 6.0125 7.5C5.75608 7.5 5.54474 7.30698 5.51586 7.05831L5.5125 7V3C5.5125 2.72386 5.73635 2.5 6.0125 2.5ZM6.625 8.875C6.625 9.22018 6.34517 9.5 6 9.5C5.65482 9.5 5.375 9.22018 5.375 8.875C5.375 8.52983 5.65482 8.25 6 8.25C6.34517 8.25 6.625 8.52983 6.625 8.875Z" fill="#E12705"/>
</svg>
